<svg width="130" height="78" viewBox="0 0 130 78" fill="none" xmlns="http://www.w3.org/2000/svg">
<path d="M5.05 30.65C5.51667 30.75 6.01667 30.8333 6.55 30.9C7.01667 30.9666 7.5 31.0333 8 31.1C8.53333 31.1333 9.06667 31.15 9.6 31.15C10.5333 31.15 11.4333 31.05 12.3 30.85C13.2 30.6166 14 30.25 14.7 29.75C15.4 29.25 15.95 28.6166 16.35 27.85C16.7833 27.05 17 26.0833 17 24.95C17 23.9833 16.75 23.0666 16.25 22.2C15.7833 21.3333 15.1667 20.5 14.4 19.7C13.6667 18.9 12.8667 18.1333 12 17.4C11.1667 16.6666 10.3667 15.9333 9.6 15.2C8.86667 14.4333 8.25 13.6833 7.75 12.95C7.28333 12.1833 7.05 11.4 7.05 10.6C7.05 9.39998 7.43333 8.48331 8.2 7.84997C8.96667 7.18331 10.2 6.84998 11.9 6.84998C12.1667 6.84998 12.4333 6.86664 12.7 6.89998C13 6.89998 13.2833 6.91664 13.55 6.94997C13.8167 6.98331 14.0833 6.99998 14.35 6.99998V5.69998C14.1167 5.69998 13.8667 5.68331 13.6 5.64998C13.3667 5.61664 13.1 5.59998 12.8 5.59998C12.5333 5.56664 12.25 5.54997 11.95 5.54997C10.15 5.54997 8.66667 5.96664 7.5 6.79998C6.33333 7.59998 5.75 8.86664 5.75 10.6C5.75 11.5333 5.98333 12.4166 6.45 13.25C6.95 14.05 7.56667 14.85 8.3 15.65C9.06667 16.4166 9.86667 17.1666 10.7 17.9C11.5667 18.6333 12.3667 19.3833 13.1 20.15C13.8667 20.8833 14.4833 21.65 14.95 22.45C15.45 23.25 15.7 24.0833 15.7 24.95C15.7 26.55 15.15 27.7666 14.05 28.6C12.9833 29.4333 11.5 29.85 9.6 29.85C8.46667 29.85 7.43333 29.7666 6.5 29.6C6 29.5333 5.51667 29.45 5.05 29.35V30.65ZM0.85 24.65C1.58333 24.8833 2.35 25.0666 3.15 25.2C3.81667 25.3666 4.56667 25.5 5.4 25.6C6.26667 25.7 7.13333 25.75 8 25.75C9.53333 25.75 10.3 25.1833 10.3 24.05C10.3 23.6166 10.0667 23.1833 9.6 22.75C9.13333 22.2833 8.53333 21.7833 7.8 21.25C7.1 20.6833 6.33333 20.0666 5.5 19.4C4.7 18.7333 3.93333 17.9666 3.2 17.1C2.5 16.2333 1.91667 15.2666 1.45 14.2C0.983333 13.1 0.75 11.85 0.75 10.45C0.75 8.88331 1.03333 7.49998 1.6 6.29998C2.16667 5.09998 2.95 4.09998 3.95 3.29998C4.95 2.49998 6.11667 1.89997 7.45 1.49998C8.81667 1.06664 10.2667 0.849976 11.8 0.849976C12.6 0.849976 13.4 0.899976 14.2 0.999977C15 1.06664 15.7167 1.13331 16.35 1.19997C17.0833 1.29997 17.8 1.39998 18.5 1.49998V10.85C18.2333 10.8166 17.9333 10.7833 17.6 10.75C17.3333 10.7166 17.0333 10.6833 16.7 10.65C16.3667 10.6166 16.0167 10.6 15.65 10.6C15.45 10.6 15.2 10.6166 14.9 10.65C14.6 10.65 14.3167 10.6833 14.05 10.75C13.7833 10.8166 13.55 10.9333 13.35 11.1C13.15 11.2666 13.05 11.5 13.05 11.8C13.05 12.0666 13.2667 12.4 13.7 12.8C14.1667 13.2 14.7167 13.6666 15.35 14.2C16.0167 14.7333 16.7333 15.35 17.5 16.05C18.3 16.75 19.0167 17.55 19.65 18.45C20.3167 19.35 20.8667 20.3666 21.3 21.5C21.7667 22.6333 22 23.9 22 25.3C22 26.7666 21.7667 28.15 21.3 29.45C20.8333 30.7166 20.1 31.8333 19.1 32.8C18.1333 33.7333 16.8833 34.4666 15.35 35C13.8167 35.5666 12 35.85 9.9 35.85C8.63333 35.85 7.45 35.7833 6.35 35.65C5.28333 35.55 4.33333 35.4166 3.5 35.25C2.53333 35.0833 1.65 34.8833 0.85 34.65V24.65Z" fill="black"/>
<path d="M24.2598 1.64997H43.9098V10.4H34.9098V14.1H43.7598V22.4H34.9098V26.25H44.2598V35H24.2598V1.64997ZM40.5598 31V29.8H30.5598V18.85H40.0598V17.65H30.5598V6.84998H40.5598V5.64998H29.2598V31H40.5598Z" fill="black"/>
<path d="M46.5078 18.35C46.5078 15.95 46.9578 13.6833 47.8578 11.55C48.7911 9.41664 50.0411 7.56664 51.6078 5.99997C53.2078 4.39998 55.0745 3.14998 57.2078 2.24998C59.3411 1.31664 61.6078 0.849976 64.0078 0.849976C66.4078 0.849976 68.6745 1.31664 70.8078 2.24998C72.9411 3.14998 74.7911 4.39998 76.3578 5.99997C77.9578 7.56664 79.2078 9.41664 80.1078 11.55C81.0411 13.6833 81.5078 15.95 81.5078 18.35C81.5078 20.75 81.0411 23.0166 80.1078 25.15C79.2078 27.2833 77.9578 29.15 76.3578 30.75C74.7911 32.3166 72.9411 33.5666 70.8078 34.5C68.6745 35.4 66.4078 35.85 64.0078 35.85C61.6078 35.85 59.3411 35.4 57.2078 34.5C55.0745 33.5666 53.2078 32.3166 51.6078 30.75C50.0411 29.15 48.7911 27.2833 47.8578 25.15C46.9578 23.0166 46.5078 20.75 46.5078 18.35ZM51.2078 18.35C51.2078 20.1166 51.5411 21.7833 52.2078 23.35C52.8745 24.8833 53.7911 26.2333 54.9578 27.4C56.1245 28.5666 57.4745 29.4833 59.0078 30.15C60.5745 30.8166 62.2411 31.15 64.0078 31.15C65.7745 31.15 67.4245 30.8166 68.9578 30.15C70.5245 29.4833 71.8911 28.5666 73.0578 27.4C74.2245 26.2333 75.1411 24.8833 75.8078 23.35C76.4745 21.7833 76.8078 20.1166 76.8078 18.35C76.8078 16.5833 76.4745 14.9333 75.8078 13.4C75.1411 11.8333 74.2245 10.4666 73.0578 9.29998C71.8911 8.13331 70.5245 7.21664 68.9578 6.54998C67.4245 5.88331 65.7745 5.54997 64.0078 5.54997C62.2411 5.54997 60.5745 5.88331 59.0078 6.54998C57.4745 7.21664 56.1245 8.13331 54.9578 9.29998C53.7911 10.4666 52.8745 11.8333 52.2078 13.4C51.5411 14.9333 51.2078 16.5833 51.2078 18.35ZM57.0078 18.35C57.0078 19.3166 57.1911 20.2333 57.5578 21.1C57.9245 21.9333 58.4245 22.6666 59.0578 23.3C59.6911 23.9333 60.4245 24.4333 61.2578 24.8C62.1245 25.1666 63.0411 25.35 64.0078 25.35C64.9745 25.35 65.8745 25.1666 66.7078 24.8C67.5745 24.4333 68.3245 23.9333 68.9578 23.3C69.5911 22.6666 70.0911 21.9333 70.4578 21.1C70.8245 20.2333 71.0078 19.3166 71.0078 18.35C71.0078 17.3833 70.8245 16.4833 70.4578 15.65C70.0911 14.7833 69.5911 14.0333 68.9578 13.4C68.3245 12.7666 67.5745 12.2666 66.7078 11.9C65.8745 11.5333 64.9745 11.35 64.0078 11.35C63.0411 11.35 62.1245 11.5333 61.2578 11.9C60.4245 12.2666 59.6911 12.7666 59.0578 13.4C58.4245 14.0333 57.9245 14.7833 57.5578 15.65C57.1911 16.4833 57.0078 17.3833 57.0078 18.35ZM64.0078 29.85C62.4078 29.85 60.9078 29.55 59.5078 28.95C58.1411 28.35 56.9245 27.5333 55.8578 26.5C54.8245 25.4333 54.0078 24.2166 53.4078 22.85C52.8078 21.45 52.5078 19.95 52.5078 18.35C52.5078 16.75 52.8078 15.2666 53.4078 13.9C54.0078 12.5 54.8245 11.2833 55.8578 10.25C56.9245 9.18331 58.1411 8.34998 59.5078 7.74998C60.9078 7.14998 62.4078 6.84998 64.0078 6.84998C65.6078 6.84998 67.0912 7.14998 68.4578 7.74998C69.8578 8.34998 71.0745 9.18331 72.1078 10.25C73.1745 11.2833 74.0078 12.5 74.6078 13.9C75.2078 15.2666 75.5078 16.75 75.5078 18.35C75.5078 19.95 75.2078 21.45 74.6078 22.85C74.0078 24.2166 73.1745 25.4333 72.1078 26.5C71.0745 27.5333 69.8578 28.35 68.4578 28.95C67.0912 29.55 65.6078 29.85 64.0078 29.85Z" fill="black"/>
<path d="M84.2695 1.64997H95.0695V9.34998L101.37 1.64997H114.42L102.67 16.9L115.02 35H102.17L95.0695 24.7V35H84.2695V1.64997ZM90.5695 31V24.25L95.7695 17.8L104.87 31H106.42L96.6695 16.75L105.62 5.64998H104.02L90.5695 22.25V5.64998H89.2695V31H90.5695Z" fill="black"/>
<path d="M114.8 14.15H128V22.5H114.8V14.15ZM125.05 18.9V17.75H117.85V18.9H125.05Z" fill="black"/>
<path d="M0.85 43.3H13.9C15.5667 43.3 17.0833 43.5 18.45 43.9C19.85 44.2667 21.0333 44.8333 22 45.6C23 46.3333 23.7667 47.2667 24.3 48.4C24.8667 49.5 25.15 50.8 25.15 52.3C25.15 53.3667 25.0167 54.2833 24.75 55.05C24.4833 55.7833 24.2 56.4 23.9 56.9C23.5333 57.5 23.1167 58 22.65 58.4C23.3833 58.8667 24.05 59.4667 24.65 60.2C25.15 60.8333 25.6 61.6333 26 62.6C26.4333 63.5667 26.65 64.75 26.65 66.15C26.65 67.75 26.3667 69.2 25.8 70.5C25.2333 71.8 24.4167 72.9167 23.35 73.85C22.3167 74.75 21.0333 75.45 19.5 75.95C18 76.4167 16.3167 76.65 14.45 76.65H0.85V43.3ZM12.35 68.8C14.8833 68.8 16.15 67.8333 16.15 65.9C16.15 63.9667 14.8833 63 12.35 63H11.15V68.8H12.35ZM14.85 53.45C14.85 51.9167 14.0167 51.15 12.35 51.15H11.15V55.75H12.35C14.0167 55.75 14.85 54.9833 14.85 53.45ZM13.05 72.65C15.9833 72.65 18.15 72.0167 19.55 70.75C20.95 69.4833 21.65 67.8 21.65 65.7C21.65 64.3333 21.35 63.25 20.75 62.45C20.1833 61.6167 19.5667 60.9667 18.9 60.5C18.0667 59.9667 17.15 59.6 16.15 59.4C16.95 59.1667 17.6667 58.8 18.3 58.3C18.8667 57.8667 19.3667 57.2833 19.8 56.55C20.2667 55.7833 20.5 54.8167 20.5 53.65C20.5 51.55 19.8333 49.9667 18.5 48.9C17.1667 47.8333 15.35 47.3 13.05 47.3H5.85V72.65H13.05ZM7.15 71.45V60H13C14.0333 60 14.9833 60.1167 15.85 60.35C16.75 60.55 17.5333 60.8833 18.2 61.35C18.8667 61.7833 19.3833 62.3667 19.75 63.1C20.15 63.8333 20.35 64.7 20.35 65.7C20.35 67.7333 19.6667 69.2 18.3 70.1C16.9667 71 15.2 71.45 13 71.45H7.15ZM7.15 58.8V48.5H13.05C15.2167 48.5 16.7667 48.9833 17.7 49.95C18.6667 50.8833 19.15 52.1167 19.15 53.65C19.15 55.1833 18.6667 56.4333 17.7 57.4C16.7667 58.3333 15.2167 58.8 13.05 58.8H7.15Z" fill="black"/>
<path d="M28.1273 60C28.1273 57.6 28.5774 55.3333 29.4774 53.2C30.4107 51.0667 31.6607 49.2167 33.2273 47.65C34.8273 46.05 36.694 44.8 38.8273 43.9C40.9607 42.9667 43.2273 42.5 45.6273 42.5C48.0273 42.5 50.294 42.9667 52.4273 43.9C54.5607 44.8 56.4107 46.05 57.9773 47.65C59.5773 49.2167 60.8273 51.0667 61.7273 53.2C62.6607 55.3333 63.1273 57.6 63.1273 60C63.1273 62.4 62.6607 64.6667 61.7273 66.8C60.8273 68.9333 59.5773 70.8 57.9773 72.4C56.4107 73.9667 54.5607 75.2167 52.4273 76.15C50.294 77.05 48.0273 77.5 45.6273 77.5C43.2273 77.5 40.9607 77.05 38.8273 76.15C36.694 75.2167 34.8273 73.9667 33.2273 72.4C31.6607 70.8 30.4107 68.9333 29.4774 66.8C28.5774 64.6667 28.1273 62.4 28.1273 60ZM32.8273 60C32.8273 61.7667 33.1607 63.4333 33.8273 65C34.494 66.5333 35.4107 67.8833 36.5773 69.05C37.744 70.2167 39.094 71.1333 40.6273 71.8C42.194 72.4667 43.8607 72.8 45.6273 72.8C47.394 72.8 49.044 72.4667 50.5773 71.8C52.144 71.1333 53.5107 70.2167 54.6773 69.05C55.844 67.8833 56.7607 66.5333 57.4273 65C58.094 63.4333 58.4273 61.7667 58.4273 60C58.4273 58.2333 58.094 56.5833 57.4273 55.05C56.7607 53.4833 55.844 52.1167 54.6773 50.95C53.5107 49.7833 52.144 48.8667 50.5773 48.2C49.044 47.5333 47.394 47.2 45.6273 47.2C43.8607 47.2 42.194 47.5333 40.6273 48.2C39.094 48.8667 37.744 49.7833 36.5773 50.95C35.4107 52.1167 34.494 53.4833 33.8273 55.05C33.1607 56.5833 32.8273 58.2333 32.8273 60ZM38.6273 60C38.6273 60.9667 38.8107 61.8833 39.1773 62.75C39.544 63.5833 40.044 64.3167 40.6773 64.95C41.3107 65.5833 42.044 66.0833 42.8773 66.45C43.744 66.8167 44.6607 67 45.6273 67C46.594 67 47.494 66.8167 48.3273 66.45C49.194 66.0833 49.944 65.5833 50.5773 64.95C51.2107 64.3167 51.7107 63.5833 52.0773 62.75C52.444 61.8833 52.6273 60.9667 52.6273 60C52.6273 59.0333 52.444 58.1333 52.0773 57.3C51.7107 56.4333 51.2107 55.6833 50.5773 55.05C49.944 54.4167 49.194 53.9167 48.3273 53.55C47.494 53.1833 46.594 53 45.6273 53C44.6607 53 43.744 53.1833 42.8773 53.55C42.044 53.9167 41.3107 54.4167 40.6773 55.05C40.044 55.6833 39.544 56.4333 39.1773 57.3C38.8107 58.1333 38.6273 59.0333 38.6273 60ZM45.6273 71.5C44.0273 71.5 42.5273 71.2 41.1273 70.6C39.7607 70 38.544 69.1833 37.4773 68.15C36.444 67.0833 35.6273 65.8667 35.0273 64.5C34.4273 63.1 34.1273 61.6 34.1273 60C34.1273 58.4 34.4273 56.9167 35.0273 55.55C35.6273 54.15 36.444 52.9333 37.4773 51.9C38.544 50.8333 39.7607 50 41.1273 49.4C42.5273 48.8 44.0273 48.5 45.6273 48.5C47.2273 48.5 48.7107 48.8 50.0773 49.4C51.4773 50 52.694 50.8333 53.7273 51.9C54.794 52.9333 55.6273 54.15 56.2273 55.55C56.8273 56.9167 57.1273 58.4 57.1273 60C57.1273 61.6 56.8273 63.1 56.2273 64.5C55.6273 65.8667 54.794 67.0833 53.7273 68.15C52.694 69.1833 51.4773 70 50.0773 70.6C48.7107 71.2 47.2273 71.5 45.6273 71.5Z" fill="black"/>
<path d="M65.8891 43.3H74.6391L83.8391 56.15V43.3H94.2891V76.65H85.4891L76.3391 63.85V76.65H65.8891V43.3ZM71.8391 72.65V49.55L88.3391 72.65H89.6391V47.3H88.3391V70.4L71.8391 47.3H70.5391V72.65H71.8391Z" fill="black"/>
<path d="M119.024 54.65C118.424 54.1167 117.674 53.7167 116.774 53.45C115.874 53.15 114.99 53 114.124 53C113.157 53 112.274 53.1833 111.474 53.55C110.674 53.8833 109.974 54.3667 109.374 55C108.807 55.6 108.357 56.3333 108.024 57.2C107.69 58.0667 107.524 59 107.524 60C107.524 61 107.707 61.9333 108.074 62.8C108.44 63.6667 108.94 64.4167 109.574 65.05C110.207 65.65 110.94 66.1333 111.774 66.5C112.64 66.8333 113.557 67 114.524 67C115.657 67 116.69 66.7667 117.624 66.3C118.557 65.8 119.357 65.1333 120.024 64.3H117.024V57.3H129.874V68.4C129.107 69.7667 128.19 71.0167 127.124 72.15C126.057 73.25 124.857 74.2 123.524 75C122.224 75.8 120.807 76.4167 119.274 76.85C117.74 77.2833 116.157 77.5 114.524 77.5C112.124 77.5 109.857 77.05 107.724 76.15C105.59 75.25 103.724 74.0167 102.124 72.45C100.557 70.8833 99.3072 69.0333 98.3738 66.9C97.4738 64.7667 97.0238 62.4667 97.0238 60C97.0238 57.6 97.4572 55.3333 98.3238 53.2C99.1905 51.0667 100.374 49.2167 101.874 47.65C103.407 46.05 105.207 44.8 107.274 43.9C109.374 42.9667 111.624 42.5 114.024 42.5C115.89 42.5 117.507 42.6833 118.874 43.05C120.24 43.4167 121.39 43.8333 122.324 44.3C123.424 44.8333 124.34 45.4167 125.074 46.05L119.024 54.65ZM119.524 48.2C119.09 48 118.607 47.8333 118.074 47.7C117.607 47.5667 117.057 47.45 116.424 47.35C115.79 47.25 115.09 47.2 114.324 47.2C112.557 47.2 110.907 47.5167 109.374 48.15C107.84 48.7833 106.507 49.6667 105.374 50.8C104.24 51.9 103.34 53.2333 102.674 54.8C102.04 56.3667 101.724 58.1 101.724 60C101.724 61.9 102.057 63.6333 102.724 65.2C103.39 66.7667 104.307 68.1167 105.474 69.25C106.64 70.35 107.99 71.2167 109.524 71.85C111.09 72.4833 112.757 72.8 114.524 72.8C116.824 72.8 118.907 72.2667 120.774 71.2C122.64 70.1 124.157 68.65 125.324 66.85V60.3H120.024V61.5H124.024V66.5C122.99 68.0333 121.64 69.25 119.974 70.15C118.34 71.05 116.524 71.5 114.524 71.5C112.924 71.5 111.424 71.2333 110.024 70.7C108.657 70.1333 107.44 69.35 106.374 68.35C105.34 67.3167 104.524 66.1 103.924 64.7C103.324 63.2667 103.024 61.7 103.024 60C103.024 58.3 103.307 56.75 103.874 55.35C104.474 53.9167 105.274 52.7 106.274 51.7C107.307 50.6667 108.507 49.8833 109.874 49.35C111.24 48.7833 112.724 48.5 114.324 48.5C114.924 48.5 115.49 48.55 116.024 48.65C116.557 48.75 117.024 48.85 117.424 48.95C117.891 49.0833 118.324 49.2167 118.724 49.35L119.524 48.2Z" fill="black"/>
</svg>
