<svg width="510" height="102" viewBox="0 0 100 12" fill="none" xmlns="http://www.w3.org/2000/svg">
<path d="M5.05 30.65C5.51667 30.75 6.01667 30.8333 6.55 30.9C7.01667 30.9667 7.5 31.0333 8 31.1C8.53333 31.1333 9.06667 31.15 9.6 31.15C10.5333 31.15 11.4333 31.05 12.3 30.85C13.2 30.6167 14 30.25 14.7 29.75C15.4 29.25 15.95 28.6167 16.35 27.85C16.7833 27.05 17 26.0833 17 24.95C17 23.9833 16.75 23.0667 16.25 22.2C15.7833 21.3333 15.1667 20.5 14.4 19.7C13.6667 18.9 12.8667 18.1333 12 17.4C11.1667 16.6667 10.3667 15.9333 9.6 15.2C8.86667 14.4333 8.25 13.6833 7.75 12.95C7.28333 12.1833 7.05 11.4 7.05 10.6C7.05 9.4 7.43333 8.48333 8.2 7.85C8.96667 7.18333 10.2 6.85 11.9 6.85C12.1667 6.85 12.4333 6.86667 12.7 6.9C13 6.9 13.2833 6.91666 13.55 6.95C13.8167 6.98333 14.0833 7 14.35 7V5.7C14.1167 5.7 13.8667 5.68333 13.6 5.65C13.3667 5.61667 13.1 5.6 12.8 5.6C12.5333 5.56667 12.25 5.55 11.95 5.55C10.15 5.55 8.66667 5.96666 7.5 6.8C6.33333 7.6 5.75 8.86667 5.75 10.6C5.75 11.5333 5.98333 12.4167 6.45 13.25C6.95 14.05 7.56667 14.85 8.3 15.65C9.06667 16.4167 9.86667 17.1667 10.7 17.9C11.5667 18.6333 12.3667 19.3833 13.1 20.15C13.8667 20.8833 14.4833 21.65 14.95 22.45C15.45 23.25 15.7 24.0833 15.7 24.95C15.7 26.55 15.15 27.7667 14.05 28.6C12.9833 29.4333 11.5 29.85 9.6 29.85C8.46667 29.85 7.43333 29.7667 6.5 29.6C6 29.5333 5.51667 29.45 5.05 29.35V30.65ZM0.85 24.65C1.58333 24.8833 2.35 25.0667 3.15 25.2C3.81667 25.3667 4.56667 25.5 5.4 25.6C6.26667 25.7 7.13333 25.75 8 25.75C9.53333 25.75 10.3 25.1833 10.3 24.05C10.3 23.6167 10.0667 23.1833 9.6 22.75C9.13333 22.2833 8.53333 21.7833 7.8 21.25C7.1 20.6833 6.33333 20.0667 5.5 19.4C4.7 18.7333 3.93333 17.9667 3.2 17.1C2.5 16.2333 1.91667 15.2667 1.45 14.2C0.983333 13.1 0.75 11.85 0.75 10.45C0.75 8.88333 1.03333 7.5 1.6 6.3C2.16667 5.1 2.95 4.1 3.95 3.3C4.95 2.5 6.11667 1.9 7.45 1.5C8.81667 1.06667 10.2667 0.849999 11.8 0.849999C12.6 0.849999 13.4 0.899999 14.2 1C15 1.06667 15.7167 1.13333 16.35 1.2C17.0833 1.3 17.8 1.4 18.5 1.5V10.85C18.2333 10.8167 17.9333 10.7833 17.6 10.75C17.3333 10.7167 17.0333 10.6833 16.7 10.65C16.3667 10.6167 16.0167 10.6 15.65 10.6C15.45 10.6 15.2 10.6167 14.9 10.65C14.6 10.65 14.3167 10.6833 14.05 10.75C13.7833 10.8167 13.55 10.9333 13.35 11.1C13.15 11.2667 13.05 11.5 13.05 11.8C13.05 12.0667 13.2667 12.4 13.7 12.8C14.1667 13.2 14.7167 13.6667 15.35 14.2C16.0167 14.7333 16.7333 15.35 17.5 16.05C18.3 16.75 19.0167 17.55 19.65 18.45C20.3167 19.35 20.8667 20.3667 21.3 21.5C21.7667 22.6333 22 23.9 22 25.3C22 26.7667 21.7667 28.15 21.3 29.45C20.8333 30.7167 20.1 31.8333 19.1 32.8C18.1333 33.7333 16.8833 34.4667 15.35 35C13.8167 35.5667 12 35.85 9.9 35.85C8.63333 35.85 7.45 35.7833 6.35 35.65C5.28333 35.55 4.33333 35.4167 3.5 35.25C2.53333 35.0833 1.65 34.8833 0.85 34.65V24.65ZM24.2598 1.65H43.9098V10.4H34.9098V14.1H43.7598V22.4H34.9098V26.25H44.2598V35H24.2598V1.65ZM40.5598 31V29.8H30.5598V18.85H40.0598V17.65H30.5598V6.85H40.5598V5.65H29.2598V31H40.5598ZM46.5078 18.35C46.5078 15.95 46.9578 13.6833 47.8578 11.55C48.7911 9.41666 50.0411 7.56666 51.6078 6C53.2078 4.4 55.0745 3.15 57.2078 2.25C59.3411 1.31667 61.6078 0.849999 64.0078 0.849999C66.4078 0.849999 68.6745 1.31667 70.8078 2.25C72.9411 3.15 74.7911 4.4 76.3578 6C77.9578 7.56666 79.2078 9.41666 80.1078 11.55C81.0411 13.6833 81.5078 15.95 81.5078 18.35C81.5078 20.75 81.0411 23.0167 80.1078 25.15C79.2078 27.2833 77.9578 29.15 76.3578 30.75C74.7911 32.3167 72.9411 33.5667 70.8078 34.5C68.6745 35.4 66.4078 35.85 64.0078 35.85C61.6078 35.85 59.3411 35.4 57.2078 34.5C55.0745 33.5667 53.2078 32.3167 51.6078 30.75C50.0411 29.15 48.7911 27.2833 47.8578 25.15C46.9578 23.0167 46.5078 20.75 46.5078 18.35ZM51.2078 18.35C51.2078 20.1167 51.5411 21.7833 52.2078 23.35C52.8745 24.8833 53.7911 26.2333 54.9578 27.4C56.1245 28.5667 57.4745 29.4833 59.0078 30.15C60.5745 30.8167 62.2411 31.15 64.0078 31.15C65.7745 31.15 67.4245 30.8167 68.9578 30.15C70.5245 29.4833 71.8911 28.5667 73.0578 27.4C74.2245 26.2333 75.1411 24.8833 75.8078 23.35C76.4745 21.7833 76.8078 20.1167 76.8078 18.35C76.8078 16.5833 76.4745 14.9333 75.8078 13.4C75.1411 11.8333 74.2245 10.4667 73.0578 9.3C71.8911 8.13333 70.5245 7.21667 68.9578 6.55C67.4245 5.88333 65.7745 5.55 64.0078 5.55C62.2411 5.55 60.5745 5.88333 59.0078 6.55C57.4745 7.21667 56.1245 8.13333 54.9578 9.3C53.7911 10.4667 52.8745 11.8333 52.2078 13.4C51.5411 14.9333 51.2078 16.5833 51.2078 18.35ZM57.0078 18.35C57.0078 19.3167 57.1911 20.2333 57.5578 21.1C57.9245 21.9333 58.4245 22.6667 59.0578 23.3C59.6911 23.9333 60.4245 24.4333 61.2578 24.8C62.1245 25.1667 63.0411 25.35 64.0078 25.35C64.9745 25.35 65.8745 25.1667 66.7078 24.8C67.5745 24.4333 68.3245 23.9333 68.9578 23.3C69.5911 22.6667 70.0911 21.9333 70.4578 21.1C70.8245 20.2333 71.0078 19.3167 71.0078 18.35C71.0078 17.3833 70.8245 16.4833 70.4578 15.65C70.0911 14.7833 69.5911 14.0333 68.9578 13.4C68.3245 12.7667 67.5745 12.2667 66.7078 11.9C65.8745 11.5333 64.9745 11.35 64.0078 11.35C63.0411 11.35 62.1245 11.5333 61.2578 11.9C60.4245 12.2667 59.6911 12.7667 59.0578 13.4C58.4245 14.0333 57.9245 14.7833 57.5578 15.65C57.1911 16.4833 57.0078 17.3833 57.0078 18.35ZM64.0078 29.85C62.4078 29.85 60.9078 29.55 59.5078 28.95C58.1411 28.35 56.9245 27.5333 55.8578 26.5C54.8245 25.4333 54.0078 24.2167 53.4078 22.85C52.8078 21.45 52.5078 19.95 52.5078 18.35C52.5078 16.75 52.8078 15.2667 53.4078 13.9C54.0078 12.5 54.8245 11.2833 55.8578 10.25C56.9245 9.18333 58.1411 8.35 59.5078 7.75C60.9078 7.15 62.4078 6.85 64.0078 6.85C65.6078 6.85 67.0911 7.15 68.4578 7.75C69.8578 8.35 71.0745 9.18333 72.1078 10.25C73.1745 11.2833 74.0078 12.5 74.6078 13.9C75.2078 15.2667 75.5078 16.75 75.5078 18.35C75.5078 19.95 75.2078 21.45 74.6078 22.85C74.0078 24.2167 73.1745 25.4333 72.1078 26.5C71.0745 27.5333 69.8578 28.35 68.4578 28.95C67.0911 29.55 65.6078 29.85 64.0078 29.85ZM84.2695 1.65H95.0695V9.35L101.37 1.65H114.42L102.67 16.9L115.02 35H102.17L95.0695 24.7V35H84.2695V1.65ZM90.5695 31V24.25L95.7695 17.8L104.87 31H106.42L96.6695 16.75L105.62 5.65H104.02L90.5695 22.25V5.65H89.2695V31H90.5695ZM109.258 14.15H122.458V22.5H109.258V14.15ZM119.508 18.9V17.75H112.308V18.9H119.508ZM125.48 1.65H138.53C140.197 1.65 141.714 1.85 143.08 2.25C144.48 2.61666 145.664 3.18333 146.63 3.95C147.63 4.68333 148.397 5.61667 148.93 6.75C149.497 7.85 149.78 9.15 149.78 10.65C149.78 11.7167 149.647 12.6333 149.38 13.4C149.114 14.1333 148.83 14.75 148.53 15.25C148.164 15.85 147.747 16.35 147.28 16.75C148.014 17.2167 148.68 17.8167 149.28 18.55C149.78 19.1833 150.23 19.9833 150.63 20.95C151.064 21.9167 151.28 23.1 151.28 24.5C151.28 26.1 150.997 27.55 150.43 28.85C149.864 30.15 149.047 31.2667 147.98 32.2C146.947 33.1 145.664 33.8 144.13 34.3C142.63 34.7667 140.947 35 139.08 35H125.48V1.65ZM136.98 27.15C139.514 27.15 140.78 26.1833 140.78 24.25C140.78 22.3167 139.514 21.35 136.98 21.35H135.78V27.15H136.98ZM139.48 11.8C139.48 10.2667 138.647 9.5 136.98 9.5H135.78V14.1H136.98C138.647 14.1 139.48 13.3333 139.48 11.8ZM137.68 31C140.614 31 142.78 30.3667 144.18 29.1C145.58 27.8333 146.28 26.15 146.28 24.05C146.28 22.6833 145.98 21.6 145.38 20.8C144.814 19.9667 144.197 19.3167 143.53 18.85C142.697 18.3167 141.78 17.95 140.78 17.75C141.58 17.5167 142.297 17.15 142.93 16.65C143.497 16.2167 143.997 15.6333 144.43 14.9C144.897 14.1333 145.13 13.1667 145.13 12C145.13 9.9 144.464 8.31667 143.13 7.25C141.797 6.18333 139.98 5.65 137.68 5.65H130.48V31H137.68ZM131.78 29.8V18.35H137.63C138.664 18.35 139.614 18.4667 140.48 18.7C141.38 18.9 142.164 19.2333 142.83 19.7C143.497 20.1333 144.014 20.7167 144.38 21.45C144.78 22.1833 144.98 23.05 144.98 24.05C144.98 26.0833 144.297 27.55 142.93 28.45C141.597 29.35 139.83 29.8 137.63 29.8H131.78ZM131.78 17.15V6.85H137.68C139.847 6.85 141.397 7.33333 142.33 8.3C143.297 9.23333 143.78 10.4667 143.78 12C143.78 13.5333 143.297 14.7833 142.33 15.75C141.397 16.6833 139.847 17.15 137.68 17.15H131.78ZM152.758 18.35C152.758 15.95 153.208 13.6833 154.108 11.55C155.041 9.41666 156.291 7.56666 157.858 6C159.458 4.4 161.324 3.15 163.458 2.25C165.591 1.31667 167.858 0.849999 170.258 0.849999C172.658 0.849999 174.924 1.31667 177.058 2.25C179.191 3.15 181.041 4.4 182.608 6C184.208 7.56666 185.458 9.41666 186.358 11.55C187.291 13.6833 187.758 15.95 187.758 18.35C187.758 20.75 187.291 23.0167 186.358 25.15C185.458 27.2833 184.208 29.15 182.608 30.75C181.041 32.3167 179.191 33.5667 177.058 34.5C174.924 35.4 172.658 35.85 170.258 35.85C167.858 35.85 165.591 35.4 163.458 34.5C161.324 33.5667 159.458 32.3167 157.858 30.75C156.291 29.15 155.041 27.2833 154.108 25.15C153.208 23.0167 152.758 20.75 152.758 18.35ZM157.458 18.35C157.458 20.1167 157.791 21.7833 158.458 23.35C159.124 24.8833 160.041 26.2333 161.208 27.4C162.374 28.5667 163.724 29.4833 165.258 30.15C166.824 30.8167 168.491 31.15 170.258 31.15C172.024 31.15 173.674 30.8167 175.208 30.15C176.774 29.4833 178.141 28.5667 179.308 27.4C180.474 26.2333 181.391 24.8833 182.058 23.35C182.724 21.7833 183.058 20.1167 183.058 18.35C183.058 16.5833 182.724 14.9333 182.058 13.4C181.391 11.8333 180.474 10.4667 179.308 9.3C178.141 8.13333 176.774 7.21667 175.208 6.55C173.674 5.88333 172.024 5.55 170.258 5.55C168.491 5.55 166.824 5.88333 165.258 6.55C163.724 7.21667 162.374 8.13333 161.208 9.3C160.041 10.4667 159.124 11.8333 158.458 13.4C157.791 14.9333 157.458 16.5833 157.458 18.35ZM163.258 18.35C163.258 19.3167 163.441 20.2333 163.808 21.1C164.174 21.9333 164.674 22.6667 165.308 23.3C165.941 23.9333 166.674 24.4333 167.508 24.8C168.374 25.1667 169.291 25.35 170.258 25.35C171.224 25.35 172.124 25.1667 172.958 24.8C173.824 24.4333 174.574 23.9333 175.208 23.3C175.841 22.6667 176.341 21.9333 176.708 21.1C177.074 20.2333 177.258 19.3167 177.258 18.35C177.258 17.3833 177.074 16.4833 176.708 15.65C176.341 14.7833 175.841 14.0333 175.208 13.4C174.574 12.7667 173.824 12.2667 172.958 11.9C172.124 11.5333 171.224 11.35 170.258 11.35C169.291 11.35 168.374 11.5333 167.508 11.9C166.674 12.2667 165.941 12.7667 165.308 13.4C164.674 14.0333 164.174 14.7833 163.808 15.65C163.441 16.4833 163.258 17.3833 163.258 18.35ZM170.258 29.85C168.658 29.85 167.158 29.55 165.758 28.95C164.391 28.35 163.174 27.5333 162.108 26.5C161.074 25.4333 160.258 24.2167 159.658 22.85C159.058 21.45 158.758 19.95 158.758 18.35C158.758 16.75 159.058 15.2667 159.658 13.9C160.258 12.5 161.074 11.2833 162.108 10.25C163.174 9.18333 164.391 8.35 165.758 7.75C167.158 7.15 168.658 6.85 170.258 6.85C171.858 6.85 173.341 7.15 174.708 7.75C176.108 8.35 177.324 9.18333 178.358 10.25C179.424 11.2833 180.258 12.5 180.858 13.9C181.458 15.2667 181.758 16.75 181.758 18.35C181.758 19.95 181.458 21.45 180.858 22.85C180.258 24.2167 179.424 25.4333 178.358 26.5C177.324 27.5333 176.108 28.35 174.708 28.95C173.341 29.55 171.858 29.85 170.258 29.85ZM190.52 1.65H199.27L208.47 14.5V1.65H218.92V35H210.12L200.97 22.2V35H190.52V1.65ZM196.47 31V7.9L212.97 31H214.27V5.65H212.97V28.75L196.47 5.65H195.17V31H196.47ZM243.654 13C243.054 12.4667 242.304 12.0667 241.404 11.8C240.504 11.5 239.621 11.35 238.754 11.35C237.788 11.35 236.904 11.5333 236.104 11.9C235.304 12.2333 234.604 12.7167 234.004 13.35C233.438 13.95 232.988 14.6833 232.654 15.55C232.321 16.4167 232.154 17.35 232.154 18.35C232.154 19.35 232.338 20.2833 232.704 21.15C233.071 22.0167 233.571 22.7667 234.204 23.4C234.838 24 235.571 24.4833 236.404 24.85C237.271 25.1833 238.188 25.35 239.154 25.35C240.288 25.35 241.321 25.1167 242.254 24.65C243.188 24.15 243.988 23.4833 244.654 22.65H241.654V15.65H254.504V26.75C253.738 28.1167 252.821 29.3667 251.754 30.5C250.688 31.6 249.488 32.55 248.154 33.35C246.854 34.15 245.438 34.7667 243.904 35.2C242.371 35.6333 240.788 35.85 239.154 35.85C236.754 35.85 234.488 35.4 232.354 34.5C230.221 33.6 228.354 32.3667 226.754 30.8C225.188 29.2333 223.938 27.3833 223.004 25.25C222.104 23.1167 221.654 20.8167 221.654 18.35C221.654 15.95 222.088 13.6833 222.954 11.55C223.821 9.41666 225.004 7.56666 226.504 6C228.038 4.4 229.838 3.15 231.904 2.25C234.004 1.31667 236.254 0.849999 238.654 0.849999C240.521 0.849999 242.138 1.03333 243.504 1.4C244.871 1.76667 246.021 2.18333 246.954 2.65C248.054 3.18333 248.971 3.76666 249.704 4.4L243.654 13ZM244.154 6.55C243.721 6.35 243.238 6.18333 242.704 6.05C242.238 5.91667 241.688 5.8 241.054 5.7C240.421 5.6 239.721 5.55 238.954 5.55C237.188 5.55 235.538 5.86666 234.004 6.5C232.471 7.13333 231.138 8.01667 230.004 9.15C228.871 10.25 227.971 11.5833 227.304 13.15C226.671 14.7167 226.354 16.45 226.354 18.35C226.354 20.25 226.688 21.9833 227.354 23.55C228.021 25.1167 228.938 26.4667 230.104 27.6C231.271 28.7 232.621 29.5667 234.154 30.2C235.721 30.8333 237.388 31.15 239.154 31.15C241.454 31.15 243.538 30.6167 245.404 29.55C247.271 28.45 248.788 27 249.954 25.2V18.65H244.654V19.85H248.654V24.85C247.621 26.3833 246.271 27.6 244.604 28.5C242.971 29.4 241.154 29.85 239.154 29.85C237.554 29.85 236.054 29.5833 234.654 29.05C233.288 28.4833 232.071 27.7 231.004 26.7C229.971 25.6667 229.154 24.45 228.554 23.05C227.954 21.6167 227.654 20.05 227.654 18.35C227.654 16.65 227.938 15.1 228.504 13.7C229.104 12.2667 229.904 11.05 230.904 10.05C231.938 9.01667 233.138 8.23333 234.504 7.7C235.871 7.13333 237.354 6.85 238.954 6.85C239.554 6.85 240.121 6.9 240.654 7C241.188 7.1 241.654 7.2 242.054 7.3C242.521 7.43333 242.954 7.56667 243.354 7.7L244.154 6.55Z" fill="white"/>
</svg>
